@startuml
'skinparam linetype ortho
skinparam linetype polyline
hide circle
hide stereotype
hide methods

'!pragma layout smetana

skinparam class<<MD>> {
 BorderColor DarkSlateGray
 BackgroundColor WhiteSmoke
 HeaderBackgroundColor #909090
}

skinparam class<<TM>> {
 BorderColor #505090
 BackgroundColor AliceBlue
 HeaderBackgroundColor SkyBlue
}


skinparam class<<TM+>> {
 BorderColor #303070  
 BackgroundColor AliceBlue
 HeaderBackgroundColor Turquoise 
}


    class "**Foundation**" as Base<<TM+>> {
        Metadata, common processes
        --
        Serves as a "guidance" and checklist
    }


    class "**Commons**" as CE<<TM>> {
        Common content to 
 be used across IGs
--
   Common models
   Common definitions
   Common terminologies
   Common profiles
    }


    class "**Implementation Guides**" as IG<<TM>> {
    For example:
    Prescription
    Lab
    }



    ' class "**PublicationRepo**" as Pub<<MD>> {
    '   Webroot content repository
    '   for published releases (html)
    '   --
    ' }


' We con't want IGs to define on StarterKit
' Common contains instances of SGPersona



'T  .d[hidden].> CE

'E  .u.> T: "   Cloned into         "




CE -d-> Base: "dependsOn"
IG --> Base: "dependsOn"
'IG -u-> T: "dependsOn"
'IG .r.> Pub : "                "
'T -d[hidden]-> IG : "           "
CE <-r- IG : "              depends On              "





'C -u-> Core 


'IG  <.. CE: "   Cloned into         "



@enduml
